<mxfile host="app.diagrams.net" agent="Mozilla/5.0 (X11; Linux x86_64) AppleWebKit/537.36 (KHTML, like Gecko) Chrome/128.0.0.0 Safari/537.36" version="24.7.17">
  <diagram name="Page-1" id="BRcNDoXDnmwkcb4C3FV0">
    <mxGraphModel dx="1195" dy="653" grid="1" gridSize="10" guides="1" tooltips="1" connect="1" arrows="1" fold="1" page="1" pageScale="1" pageWidth="850" pageHeight="1100" math="0" shadow="0">
      <root>
        <mxCell id="0" />
        <mxCell id="1" parent="0" />
        <mxCell id="Sh1dxKzc5GH1FcoaVsvd-1" value="Пользователь" style="shape=umlActor;verticalLabelPosition=bottom;verticalAlign=top;html=1;outlineConnect=0;" vertex="1" parent="1">
          <mxGeometry x="260" y="260" width="30" height="60" as="geometry" />
        </mxCell>
        <mxCell id="Sh1dxKzc5GH1FcoaVsvd-2" value="Администратор&lt;div&gt;&lt;br&gt;&lt;div&gt;&lt;br&gt;&lt;/div&gt;&lt;/div&gt;" style="shape=umlActor;verticalLabelPosition=bottom;verticalAlign=top;html=1;outlineConnect=0;" vertex="1" parent="1">
          <mxGeometry x="1010" y="320" width="30" height="60" as="geometry" />
        </mxCell>
        <mxCell id="Sh1dxKzc5GH1FcoaVsvd-7" value="Авторизоваться" style="ellipse;whiteSpace=wrap;html=1;" vertex="1" parent="1">
          <mxGeometry x="570" y="160" width="120" height="40" as="geometry" />
        </mxCell>
        <mxCell id="Sh1dxKzc5GH1FcoaVsvd-8" value="" style="endArrow=none;html=1;rounded=0;entryX=0;entryY=0.5;entryDx=0;entryDy=0;" edge="1" parent="1" target="Sh1dxKzc5GH1FcoaVsvd-7">
          <mxGeometry width="50" height="50" relative="1" as="geometry">
            <mxPoint x="300" y="280" as="sourcePoint" />
            <mxPoint x="620" y="280" as="targetPoint" />
          </mxGeometry>
        </mxCell>
        <mxCell id="Sh1dxKzc5GH1FcoaVsvd-9" value="" style="endArrow=none;html=1;rounded=0;exitX=1;exitY=0.5;exitDx=0;exitDy=0;" edge="1" parent="1" source="Sh1dxKzc5GH1FcoaVsvd-7">
          <mxGeometry width="50" height="50" relative="1" as="geometry">
            <mxPoint x="570" y="330" as="sourcePoint" />
            <mxPoint x="1000" y="360" as="targetPoint" />
          </mxGeometry>
        </mxCell>
        <mxCell id="Sh1dxKzc5GH1FcoaVsvd-10" value="Просмотреть документацию" style="ellipse;whiteSpace=wrap;html=1;" vertex="1" parent="1">
          <mxGeometry x="450" y="240" width="120" height="40" as="geometry" />
        </mxCell>
        <mxCell id="Sh1dxKzc5GH1FcoaVsvd-11" value="" style="endArrow=none;html=1;rounded=0;entryX=0;entryY=0.5;entryDx=0;entryDy=0;" edge="1" parent="1" target="Sh1dxKzc5GH1FcoaVsvd-10">
          <mxGeometry width="50" height="50" relative="1" as="geometry">
            <mxPoint x="300" y="280" as="sourcePoint" />
            <mxPoint x="460" y="220" as="targetPoint" />
          </mxGeometry>
        </mxCell>
        <mxCell id="Sh1dxKzc5GH1FcoaVsvd-16" value="Просмотеть содержание" style="ellipse;whiteSpace=wrap;html=1;" vertex="1" parent="1">
          <mxGeometry x="390" y="310" width="120" height="40" as="geometry" />
        </mxCell>
        <mxCell id="Sh1dxKzc5GH1FcoaVsvd-17" value="Просмотреть по частям" style="ellipse;whiteSpace=wrap;html=1;" vertex="1" parent="1">
          <mxGeometry x="520" y="310" width="120" height="40" as="geometry" />
        </mxCell>
        <mxCell id="Sh1dxKzc5GH1FcoaVsvd-19" value="" style="endArrow=block;endSize=10;endFill=0;html=1;rounded=0;exitX=0.5;exitY=0;exitDx=0;exitDy=0;entryX=0.055;entryY=0.767;entryDx=0;entryDy=0;entryPerimeter=0;strokeWidth=1;" edge="1" parent="1" source="Sh1dxKzc5GH1FcoaVsvd-16" target="Sh1dxKzc5GH1FcoaVsvd-10">
          <mxGeometry width="160" relative="1" as="geometry">
            <mxPoint x="540" y="360" as="sourcePoint" />
            <mxPoint x="700" y="360" as="targetPoint" />
          </mxGeometry>
        </mxCell>
        <mxCell id="Sh1dxKzc5GH1FcoaVsvd-20" value="" style="endArrow=block;endSize=10;endFill=0;html=1;rounded=0;exitX=0.5;exitY=0;exitDx=0;exitDy=0;entryX=0.799;entryY=0.974;entryDx=0;entryDy=0;entryPerimeter=0;strokeWidth=1;" edge="1" parent="1" source="Sh1dxKzc5GH1FcoaVsvd-17" target="Sh1dxKzc5GH1FcoaVsvd-10">
          <mxGeometry width="160" relative="1" as="geometry">
            <mxPoint x="495" y="330" as="sourcePoint" />
            <mxPoint x="500" y="290" as="targetPoint" />
          </mxGeometry>
        </mxCell>
        <mxCell id="Sh1dxKzc5GH1FcoaVsvd-22" value="Добавить документ" style="ellipse;whiteSpace=wrap;html=1;" vertex="1" parent="1">
          <mxGeometry x="680" y="260" width="120" height="40" as="geometry" />
        </mxCell>
        <mxCell id="Sh1dxKzc5GH1FcoaVsvd-23" value="Редактровать документ" style="ellipse;whiteSpace=wrap;html=1;" vertex="1" parent="1">
          <mxGeometry x="640" y="350" width="120" height="40" as="geometry" />
        </mxCell>
        <mxCell id="Sh1dxKzc5GH1FcoaVsvd-25" value="Extends" style="endArrow=block;endSize=10;endFill=1;html=1;rounded=0;exitX=0.5;exitY=0;exitDx=0;exitDy=0;entryX=0.5;entryY=1.07;entryDx=0;entryDy=0;dashed=1;entryPerimeter=0;" edge="1" parent="1" source="Sh1dxKzc5GH1FcoaVsvd-23" target="Sh1dxKzc5GH1FcoaVsvd-22">
          <mxGeometry width="160" relative="1" as="geometry">
            <mxPoint x="550" y="270" as="sourcePoint" />
            <mxPoint x="710" y="270" as="targetPoint" />
          </mxGeometry>
        </mxCell>
        <mxCell id="Sh1dxKzc5GH1FcoaVsvd-27" value="" style="endArrow=none;html=1;rounded=0;exitX=1;exitY=0.5;exitDx=0;exitDy=0;" edge="1" parent="1" source="Sh1dxKzc5GH1FcoaVsvd-22">
          <mxGeometry width="50" height="50" relative="1" as="geometry">
            <mxPoint x="510" y="330" as="sourcePoint" />
            <mxPoint x="1000" y="360" as="targetPoint" />
          </mxGeometry>
        </mxCell>
        <mxCell id="Sh1dxKzc5GH1FcoaVsvd-29" value="Обновить версию" style="ellipse;whiteSpace=wrap;html=1;" vertex="1" parent="1">
          <mxGeometry x="820" y="510" width="120" height="40" as="geometry" />
        </mxCell>
        <mxCell id="Sh1dxKzc5GH1FcoaVsvd-30" value="Мажорное обновление" style="ellipse;whiteSpace=wrap;html=1;" vertex="1" parent="1">
          <mxGeometry x="750" y="589.9999999999999" width="120" height="40" as="geometry" />
        </mxCell>
        <mxCell id="Sh1dxKzc5GH1FcoaVsvd-31" value="" style="endArrow=block;endSize=10;endFill=0;html=1;rounded=0;exitX=0.5;exitY=0;exitDx=0;exitDy=0;entryX=0.215;entryY=0.947;entryDx=0;entryDy=0;entryPerimeter=0;strokeWidth=1;" edge="1" source="Sh1dxKzc5GH1FcoaVsvd-30" parent="1" target="Sh1dxKzc5GH1FcoaVsvd-29">
          <mxGeometry width="160" relative="1" as="geometry">
            <mxPoint x="880" y="719.3199999999999" as="sourcePoint" />
            <mxPoint x="797" y="630.3199999999999" as="targetPoint" />
          </mxGeometry>
        </mxCell>
        <mxCell id="Sh1dxKzc5GH1FcoaVsvd-34" value="Минорное обновление" style="ellipse;whiteSpace=wrap;html=1;" vertex="1" parent="1">
          <mxGeometry x="790" y="670" width="120" height="40" as="geometry" />
        </mxCell>
        <mxCell id="Sh1dxKzc5GH1FcoaVsvd-35" value="" style="endArrow=block;endSize=10;endFill=0;html=1;rounded=0;exitX=0.5;exitY=0;exitDx=0;exitDy=0;entryX=0.756;entryY=0.906;entryDx=0;entryDy=0;entryPerimeter=0;strokeWidth=1;" edge="1" source="Sh1dxKzc5GH1FcoaVsvd-34" parent="1" target="Sh1dxKzc5GH1FcoaVsvd-29">
          <mxGeometry width="160" relative="1" as="geometry">
            <mxPoint x="970" y="699.9999999999999" as="sourcePoint" />
            <mxPoint x="887" y="611" as="targetPoint" />
          </mxGeometry>
        </mxCell>
        <mxCell id="Sh1dxKzc5GH1FcoaVsvd-36" value="Патч" style="ellipse;whiteSpace=wrap;html=1;" vertex="1" parent="1">
          <mxGeometry x="880" y="630" width="120" height="40" as="geometry" />
        </mxCell>
        <mxCell id="Sh1dxKzc5GH1FcoaVsvd-37" value="" style="endArrow=block;endSize=10;endFill=0;html=1;rounded=0;exitX=0.5;exitY=0;exitDx=0;exitDy=0;entryX=1.011;entryY=0.669;entryDx=0;entryDy=0;entryPerimeter=0;strokeWidth=1;" edge="1" source="Sh1dxKzc5GH1FcoaVsvd-36" parent="1" target="Sh1dxKzc5GH1FcoaVsvd-29">
          <mxGeometry width="160" relative="1" as="geometry">
            <mxPoint x="1070" y="669.9999999999999" as="sourcePoint" />
            <mxPoint x="987" y="581" as="targetPoint" />
          </mxGeometry>
        </mxCell>
        <mxCell id="Sh1dxKzc5GH1FcoaVsvd-38" value="" style="endArrow=none;html=1;rounded=0;exitX=0.5;exitY=0;exitDx=0;exitDy=0;" edge="1" parent="1" source="Sh1dxKzc5GH1FcoaVsvd-29">
          <mxGeometry width="50" height="50" relative="1" as="geometry">
            <mxPoint x="610" y="460" as="sourcePoint" />
            <mxPoint x="1000" y="360" as="targetPoint" />
          </mxGeometry>
        </mxCell>
        <mxCell id="Sh1dxKzc5GH1FcoaVsvd-40" value="Насроить доступ" style="ellipse;whiteSpace=wrap;html=1;" vertex="1" parent="1">
          <mxGeometry x="720" y="420" width="120" height="40" as="geometry" />
        </mxCell>
        <mxCell id="Sh1dxKzc5GH1FcoaVsvd-41" value="" style="endArrow=none;html=1;rounded=0;exitX=0.973;exitY=0.33;exitDx=0;exitDy=0;exitPerimeter=0;" edge="1" parent="1" source="Sh1dxKzc5GH1FcoaVsvd-40">
          <mxGeometry width="50" height="50" relative="1" as="geometry">
            <mxPoint x="530" y="480" as="sourcePoint" />
            <mxPoint x="1000" y="360" as="targetPoint" />
          </mxGeometry>
        </mxCell>
        <mxCell id="Sh1dxKzc5GH1FcoaVsvd-42" value="Создать учетную запись" style="ellipse;whiteSpace=wrap;html=1;" vertex="1" parent="1">
          <mxGeometry x="680" y="529.9999999999999" width="120" height="40" as="geometry" />
        </mxCell>
        <mxCell id="Sh1dxKzc5GH1FcoaVsvd-43" value="" style="endArrow=block;endSize=10;endFill=0;html=1;rounded=0;exitX=0.58;exitY=0.02;exitDx=0;exitDy=0;entryX=0.387;entryY=1.02;entryDx=0;entryDy=0;entryPerimeter=0;strokeWidth=1;exitPerimeter=0;" edge="1" source="Sh1dxKzc5GH1FcoaVsvd-42" parent="1" target="Sh1dxKzc5GH1FcoaVsvd-40">
          <mxGeometry width="160" relative="1" as="geometry">
            <mxPoint x="710" y="589.3199999999999" as="sourcePoint" />
            <mxPoint x="627" y="500.32" as="targetPoint" />
          </mxGeometry>
        </mxCell>
        <mxCell id="Sh1dxKzc5GH1FcoaVsvd-44" value="Создать шаблон документа" style="ellipse;whiteSpace=wrap;html=1;" vertex="1" parent="1">
          <mxGeometry x="550" y="400" width="120" height="40" as="geometry" />
        </mxCell>
        <mxCell id="Sh1dxKzc5GH1FcoaVsvd-45" value="" style="endArrow=none;html=1;rounded=0;exitX=0.996;exitY=0.329;exitDx=0;exitDy=0;exitPerimeter=0;" edge="1" parent="1" source="Sh1dxKzc5GH1FcoaVsvd-44">
          <mxGeometry width="50" height="50" relative="1" as="geometry">
            <mxPoint x="730" y="460" as="sourcePoint" />
            <mxPoint x="1000" y="360" as="targetPoint" />
          </mxGeometry>
        </mxCell>
        <mxCell id="Sh1dxKzc5GH1FcoaVsvd-47" value="Определить структуру документа" style="ellipse;whiteSpace=wrap;html=1;" vertex="1" parent="1">
          <mxGeometry x="460" y="490" width="120" height="40" as="geometry" />
        </mxCell>
        <mxCell id="Sh1dxKzc5GH1FcoaVsvd-50" value="Сохранить файл" style="ellipse;whiteSpace=wrap;html=1;" vertex="1" parent="1">
          <mxGeometry x="590" y="490" width="120" height="40" as="geometry" />
        </mxCell>
        <mxCell id="Sh1dxKzc5GH1FcoaVsvd-52" value="include" style="endArrow=block;endSize=10;endFill=1;html=1;rounded=0;exitX=0.241;exitY=0.949;exitDx=0;exitDy=0;entryX=0.598;entryY=-0.039;entryDx=0;entryDy=0;dashed=1;entryPerimeter=0;exitPerimeter=0;" edge="1" parent="1" source="Sh1dxKzc5GH1FcoaVsvd-44" target="Sh1dxKzc5GH1FcoaVsvd-47">
          <mxGeometry width="160" relative="1" as="geometry">
            <mxPoint x="460" y="443.5" as="sourcePoint" />
            <mxPoint x="500" y="396.5" as="targetPoint" />
          </mxGeometry>
        </mxCell>
        <mxCell id="Sh1dxKzc5GH1FcoaVsvd-53" value="include" style="endArrow=block;endSize=10;endFill=1;html=1;rounded=0;exitX=0.654;exitY=0.985;exitDx=0;exitDy=0;entryX=0.34;entryY=-0.015;entryDx=0;entryDy=0;dashed=1;entryPerimeter=0;exitPerimeter=0;" edge="1" parent="1" source="Sh1dxKzc5GH1FcoaVsvd-44" target="Sh1dxKzc5GH1FcoaVsvd-50">
          <mxGeometry width="160" relative="1" as="geometry">
            <mxPoint x="589" y="448" as="sourcePoint" />
            <mxPoint x="542" y="498" as="targetPoint" />
          </mxGeometry>
        </mxCell>
        <mxCell id="Sh1dxKzc5GH1FcoaVsvd-54" value="Добавить документ в закладки" style="ellipse;whiteSpace=wrap;html=1;" vertex="1" parent="1">
          <mxGeometry x="400" y="400" width="120" height="40" as="geometry" />
        </mxCell>
        <mxCell id="Sh1dxKzc5GH1FcoaVsvd-59" value="" style="endArrow=none;html=1;rounded=0;entryX=0.019;entryY=0.377;entryDx=0;entryDy=0;entryPerimeter=0;" edge="1" parent="1" target="Sh1dxKzc5GH1FcoaVsvd-54">
          <mxGeometry width="50" height="50" relative="1" as="geometry">
            <mxPoint x="300" y="280" as="sourcePoint" />
            <mxPoint x="540" y="340" as="targetPoint" />
          </mxGeometry>
        </mxCell>
        <mxCell id="Sh1dxKzc5GH1FcoaVsvd-60" value="Поиск по документации" style="ellipse;whiteSpace=wrap;html=1;" vertex="1" parent="1">
          <mxGeometry x="320" y="520" width="120" height="40" as="geometry" />
        </mxCell>
        <mxCell id="Sh1dxKzc5GH1FcoaVsvd-61" value="" style="endArrow=none;html=1;rounded=0;exitX=0.5;exitY=0;exitDx=0;exitDy=0;" edge="1" parent="1" source="Sh1dxKzc5GH1FcoaVsvd-60">
          <mxGeometry width="50" height="50" relative="1" as="geometry">
            <mxPoint x="420" y="410" as="sourcePoint" />
            <mxPoint x="300" y="280" as="targetPoint" />
          </mxGeometry>
        </mxCell>
        <mxCell id="Sh1dxKzc5GH1FcoaVsvd-62" value="Искать по ключевым словам" style="ellipse;whiteSpace=wrap;html=1;" vertex="1" parent="1">
          <mxGeometry x="320" y="619.9999999999999" width="120" height="40" as="geometry" />
        </mxCell>
        <mxCell id="Sh1dxKzc5GH1FcoaVsvd-63" value="Искать по названию части" style="ellipse;whiteSpace=wrap;html=1;" vertex="1" parent="1">
          <mxGeometry x="450" y="609.9999999999999" width="120" height="40" as="geometry" />
        </mxCell>
        <mxCell id="Sh1dxKzc5GH1FcoaVsvd-64" value="" style="endArrow=block;endSize=10;endFill=0;html=1;rounded=0;exitX=0.5;exitY=0;exitDx=0;exitDy=0;entryX=0.551;entryY=1.05;entryDx=0;entryDy=0;entryPerimeter=0;strokeWidth=1;" edge="1" source="Sh1dxKzc5GH1FcoaVsvd-62" parent="1" target="Sh1dxKzc5GH1FcoaVsvd-60">
          <mxGeometry width="160" relative="1" as="geometry">
            <mxPoint x="440" y="649.3199999999999" as="sourcePoint" />
            <mxPoint x="357" y="560.3199999999999" as="targetPoint" />
          </mxGeometry>
        </mxCell>
        <mxCell id="Sh1dxKzc5GH1FcoaVsvd-65" value="" style="endArrow=block;endSize=10;endFill=0;html=1;rounded=0;exitX=0.5;exitY=0;exitDx=0;exitDy=0;entryX=0.954;entryY=0.751;entryDx=0;entryDy=0;entryPerimeter=0;strokeWidth=1;" edge="1" source="Sh1dxKzc5GH1FcoaVsvd-63" parent="1" target="Sh1dxKzc5GH1FcoaVsvd-60">
          <mxGeometry width="160" relative="1" as="geometry">
            <mxPoint x="395" y="619.3199999999999" as="sourcePoint" />
            <mxPoint x="446" y="568.3199999999999" as="targetPoint" />
          </mxGeometry>
        </mxCell>
      </root>
    </mxGraphModel>
  </diagram>
</mxfile>
